<mxfile host="65bd71144e">
    <diagram id="B-lFFik7y2w779iylVWw" name="Page-1">
        <mxGraphModel dx="674" dy="576" grid="1" gridSize="10" guides="1" tooltips="1" connect="1" arrows="1" fold="1" page="1" pageScale="1" pageWidth="850" pageHeight="1100" math="1" shadow="0">
            <root>
                <mxCell id="0"/>
                <mxCell id="1" parent="0"/>
                <mxCell id="2" value="W1&lt;br&gt;&lt;br&gt;&lt;br&gt;&lt;br&gt;&lt;br&gt;&lt;br&gt;W2" style="rounded=0;whiteSpace=wrap;html=1;" parent="1" vertex="1">
                    <mxGeometry x="190" y="160" width="40" height="160" as="geometry"/>
                </mxCell>
                <mxCell id="4" value="" style="endArrow=none;html=1;entryX=0.25;entryY=0.188;entryDx=0;entryDy=0;entryPerimeter=0;" parent="1" target="2" edge="1">
                    <mxGeometry width="50" height="50" relative="1" as="geometry">
                        <mxPoint x="120" y="160" as="sourcePoint"/>
                        <mxPoint x="270" y="200" as="targetPoint"/>
                    </mxGeometry>
                </mxCell>
                <mxCell id="5" value="" style="endArrow=none;html=1;entryX=0.25;entryY=0.813;entryDx=0;entryDy=0;entryPerimeter=0;" parent="1" target="2" edge="1">
                    <mxGeometry width="50" height="50" relative="1" as="geometry">
                        <mxPoint x="120" y="320" as="sourcePoint"/>
                        <mxPoint x="250" y="210" as="targetPoint"/>
                    </mxGeometry>
                </mxCell>
                <mxCell id="8" value="X1" style="text;strokeColor=none;fillColor=none;html=1;fontSize=24;fontStyle=1;verticalAlign=middle;align=center;" parent="1" vertex="1">
                    <mxGeometry x="60" y="150" width="60" height="20" as="geometry"/>
                </mxCell>
                <mxCell id="9" value="X2" style="text;strokeColor=none;fillColor=none;html=1;fontSize=24;fontStyle=1;verticalAlign=middle;align=center;" parent="1" vertex="1">
                    <mxGeometry x="60" y="310" width="60" height="20" as="geometry"/>
                </mxCell>
                <mxCell id="13" value="" style="ellipse;whiteSpace=wrap;html=1;" parent="1" vertex="1">
                    <mxGeometry x="240" y="170" width="320" height="140" as="geometry"/>
                </mxCell>
                <mxCell id="11" value="" style="endArrow=classic;html=1;exitX=1;exitY=0.25;exitDx=0;exitDy=0;" parent="1" source="2" edge="1">
                    <mxGeometry width="50" height="50" relative="1" as="geometry">
                        <mxPoint x="280" y="300" as="sourcePoint"/>
                        <mxPoint x="280" y="220" as="targetPoint"/>
                    </mxGeometry>
                </mxCell>
                <mxCell id="12" value="" style="endArrow=classic;html=1;exitX=1;exitY=0.75;exitDx=0;exitDy=0;" parent="1" source="2" edge="1">
                    <mxGeometry width="50" height="50" relative="1" as="geometry">
                        <mxPoint x="240" y="210" as="sourcePoint"/>
                        <mxPoint x="280" y="260" as="targetPoint"/>
                    </mxGeometry>
                </mxCell>
                <mxCell id="14" value="$$&lt;br&gt;{\sum}&lt;br&gt;$$" style="ellipse;whiteSpace=wrap;html=1;aspect=fixed;fillColor=#6d8764;fontColor=#ffffff;strokeColor=#3A5431;" parent="1" vertex="1">
                    <mxGeometry x="280" y="200" width="80" height="80" as="geometry"/>
                </mxCell>
            </root>
        </mxGraphModel>
    </diagram>
</mxfile>